<svg xmlns="http://www.w3.org/2000/svg" viewBox="0 0 24 24">
  <!-- Placeholder bear mark copied from the prototype wordmark.
       Swap for the final brand SVG when the animations file lands. -->
  <defs>
    <linearGradient id="bearGrad" x1="0" y1="0" x2="1" y2="1">
      <stop offset="0" stop-color="#8a8a8a"/>
      <stop offset="1" stop-color="#5c5c5c"/>
    </linearGradient>
  </defs>
  <circle cx="6.3" cy="6.8" r="3.1" fill="url(#bearGrad)"/>
  <circle cx="17.7" cy="6.8" r="3.1" fill="url(#bearGrad)"/>
  <circle cx="6.3" cy="6.8" r="1.3" fill="#171717"/>
  <circle cx="17.7" cy="6.8" r="1.3" fill="#171717"/>
  <path d="M12 4.6c4.7 0 8.1 3.5 8.1 8.1 0 4.9-3.4 8.1-8.1 8.1s-8.1-3.2-8.1-8.1c0-4.6 3.4-8.1 8.1-8.1z" fill="url(#bearGrad)"/>
  <circle cx="9.3" cy="11.4" r="1" fill="#171717"/>
  <circle cx="14.7" cy="11.4" r="1" fill="#171717"/>
  <ellipse cx="12" cy="15.4" rx="3" ry="2.3" fill="#c9c9c9"/>
  <path d="M12 14.1a1.15 1.15 0 0 1 1.15 1.15c0 .63-.51 1.05-1.15 1.05s-1.15-.42-1.15-1.05A1.15 1.15 0 0 1 12 14.1z" fill="#171717"/>
</svg>
